<?xml version="1.0" standalone="no"?>
<svg xmlns:xlink="http://www.w3.org/1999/xlink" id="wave" style="transform:rotate(180deg); transition: 0.3s" viewBox="0 0 1440 100" version="1.1" xmlns="http://www.w3.org/2000/svg"><defs><linearGradient id="sw-gradient-0" x1="0" x2="0" y1="1" y2="0"><stop stop-color="rgba(0, 33, 71, 1)" offset="0%"/><stop stop-color="rgba(0, 33, 71, 1)" offset="100%"/></linearGradient></defs><path style="transform:translate(0, 0px); opacity:1" fill="url(#sw-gradient-0)" d="M0,60L60,58.3C120,57,240,53,360,48.3C480,43,600,37,720,38.3C840,40,960,50,1080,48.3C1200,47,1320,33,1440,28.3C1560,23,1680,27,1800,31.7C1920,37,2040,43,2160,45C2280,47,2400,43,2520,43.3C2640,43,2760,47,2880,48.3C3000,50,3120,50,3240,46.7C3360,43,3480,37,3600,33.3C3720,30,3840,30,3960,25C4080,20,4200,10,4320,15C4440,20,4560,40,4680,53.3C4800,67,4920,73,5040,75C5160,77,5280,73,5400,60C5520,47,5640,23,5760,21.7C5880,20,6000,40,6120,46.7C6240,53,6360,47,6480,51.7C6600,57,6720,73,6840,73.3C6960,73,7080,57,7200,56.7C7320,57,7440,73,7560,80C7680,87,7800,83,7920,83.3C8040,83,8160,87,8280,78.3C8400,70,8520,50,8580,40L8640,30L8640,100L8580,100C8520,100,8400,100,8280,100C8160,100,8040,100,7920,100C7800,100,7680,100,7560,100C7440,100,7320,100,7200,100C7080,100,6960,100,6840,100C6720,100,6600,100,6480,100C6360,100,6240,100,6120,100C6000,100,5880,100,5760,100C5640,100,5520,100,5400,100C5280,100,5160,100,5040,100C4920,100,4800,100,4680,100C4560,100,4440,100,4320,100C4200,100,4080,100,3960,100C3840,100,3720,100,3600,100C3480,100,3360,100,3240,100C3120,100,3000,100,2880,100C2760,100,2640,100,2520,100C2400,100,2280,100,2160,100C2040,100,1920,100,1800,100C1680,100,1560,100,1440,100C1320,100,1200,100,1080,100C960,100,840,100,720,100C600,100,480,100,360,100C240,100,120,100,60,100L0,100Z"/></svg>